<?xml version="1.0" encoding="UTF-8" standalone="no"?>
<!-- Created with Inkscape (http://www.inkscape.org/) -->

<svg
   xmlns:dc="http://purl.org/dc/elements/1.1/"
   xmlns:cc="http://creativecommons.org/ns#"
   xmlns:rdf="http://www.w3.org/1999/02/22-rdf-syntax-ns#"
   xmlns:svg="http://www.w3.org/2000/svg"
   xmlns="http://www.w3.org/2000/svg"
   xmlns:sodipodi="http://sodipodi.sourceforge.net/DTD/sodipodi-0.dtd"
   xmlns:inkscape="http://www.inkscape.org/namespaces/inkscape"
   width="560.88989"
   height="338.67395"
   id="svg2"
   version="1.1"
   inkscape:version="0.47 r22583"
   sodipodi:docname="alibaba.svg">
  <defs
     id="defs4">
    <marker
       inkscape:stockid="Arrow1Mend"
       orient="auto"
       refY="0"
       refX="0"
       id="Arrow1Mend"
       style="overflow:visible">
      <path
         id="path3617"
         d="M 0,0 5,-5 -12.5,0 5,5 0,0 z"
         style="fill-rule:evenodd;stroke:#000000;stroke-width:1pt;marker-start:none"
         transform="matrix(-0.4,0,0,-0.4,-4,0)" />
    </marker>
    <marker
       inkscape:stockid="Arrow1Lend"
       orient="auto"
       refY="0"
       refX="0"
       id="Arrow1Lend"
       style="overflow:visible">
      <path
         id="path3611"
         d="M 0,0 5,-5 -12.5,0 5,5 0,0 z"
         style="fill-rule:evenodd;stroke:#000000;stroke-width:1pt;marker-start:none"
         transform="matrix(-0.8,0,0,-0.8,-10,0)" />
    </marker>
    <inkscape:perspective
       sodipodi:type="inkscape:persp3d"
       inkscape:vp_x="0 : 526.18109 : 1"
       inkscape:vp_y="0 : 1000 : 0"
       inkscape:vp_z="744.09448 : 526.18109 : 1"
       inkscape:persp3d-origin="372.04724 : 350.78739 : 1"
       id="perspective10" />
  </defs>
  <sodipodi:namedview
     id="base"
     pagecolor="#ffffff"
     bordercolor="#666666"
     borderopacity="1.0"
     inkscape:pageopacity="0.0"
     inkscape:pageshadow="2"
     inkscape:zoom="3.764806"
     inkscape:cx="436.74068"
     inkscape:cy="162.51931"
     inkscape:document-units="px"
     inkscape:current-layer="layer1"
     showgrid="false"
     inkscape:window-width="1024"
     inkscape:window-height="696"
     inkscape:window-x="-4"
     inkscape:window-y="-4"
     inkscape:window-maximized="1" />
  <metadata
     id="metadata7">
    <rdf:RDF>
      <cc:Work
         rdf:about="">
        <dc:format>image/svg+xml</dc:format>
        <dc:type
           rdf:resource="http://purl.org/dc/dcmitype/StillImage" />
        <dc:title />
      </cc:Work>
    </rdf:RDF>
  </metadata>
  <g
     inkscape:label="Layer 1"
     inkscape:groupmode="layer"
     id="layer1"
     transform="translate(-14.793488,-435.37466)">
    <path
       style="color:#000000;fill:#000000;fill-opacity:1;fill-rule:nonzero;stroke:#000000;stroke-width:1.67999995;stroke-linecap:round;stroke-linejoin:round;stroke-miterlimit:7.69999981;stroke-opacity:1;stroke-dasharray:none;stroke-dashoffset:0;marker:none;visibility:visible;display:inline;overflow:visible;enable-background:accumulate"
       d="m 125.24728,607.1825 c 18.00358,1.63152 35.48039,-2.87904 52.88781,-6.60824 18.84428,-3.82293 36.75947,7.63656 47.49385,22.36155 17.7603,17.82296 21.69667,43.78902 34.8479,64.37657 13.11998,16.72435 29.62287,31.78723 49.14227,40.54257 27.79683,8.82466 58.81222,6.3105 84.77749,-7.05976 17.09867,-7.21349 33.75323,-17.42074 43.17587,-33.97377 10.97206,-13.0751 16.95326,-29.31917 18.62407,-46.2249 3.03964,-23.78434 4.54282,-48.08023 2.38879,-71.98216 -5.44543,-24.66807 -20.22245,-47.18478 -39.24473,-63.63786 -20.41995,-14.9941 -42.36943,-29.12944 -66.92467,-36.2639 -24.22315,-6.50341 -47.73095,6.35304 -68.6268,17.14084 -23.27444,14.66332 -45.44291,32.05032 -70.96963,42.81396 -23.7789,6.18527 -48.28141,9.70191 -72.91511,8.86139 -16.2653,2.44301 -2.15835,-7.80833 6.24744,-4.5423 22.08124,0.69507 43.9892,-2.1141 65.45629,-7.14406 16.56882,-2.90261 27.75592,-13.37151 41.4358,-21.60502 26.75946,-17.51101 54.34208,-36.9375 86.61963,-41.84151 26.7665,-0.92053 50.07031,14.9144 72.01046,28.12802 24.89334,15.43049 43.35705,40.42163 52.39839,68.13388 4.59403,21.23249 1.48128,43.24873 0.68534,64.73857 -2.15031,20.55394 -4.80541,42.5561 -18.96997,58.73781 -7.9853,13.06402 -18.79308,24.27644 -32.87339,30.73533 -25.07985,14.29813 -52.90159,27.53975 -82.5872,24.37479 -17.80417,-0.63373 -35.37329,-6.34419 -48.79694,-18.35422 -17.38656,-13.23012 -32.91418,-29.96975 -39.2099,-51.39318 -7.75509,-21.65128 -20.76586,-41.87534 -39.17087,-55.8592 -16.18253,-11.82655 -36.15243,-5.89327 -53.64818,-1.44372 -7.74243,0.72078 -28.71223,3.95147 -28.48408,0.0618 1.41002,-1.02445 2.82005,-2.04889 4.23007,-3.07333 z"
       id="path2818" />
    <path
       style="color:#000000;fill:#000000;fill-opacity:1;fill-rule:nonzero;stroke:#000000;stroke-width:1.67999995;stroke-linecap:round;stroke-linejoin:round;stroke-miterlimit:7.69999981;stroke-opacity:1;stroke-dasharray:none;stroke-dashoffset:0;marker:none;visibility:visible;display:inline;overflow:visible;enable-background:accumulate"
       d="m 321.4077,537.875 c -6.27386,0.13371 -12.77136,1.60003 -17.74099,5.62891 -9.51452,6.82707 -17.86971,15.25873 -28.13444,21.0289 -7.42099,4.41602 -15.72617,7.22108 -22.88665,12.08814 -3.38304,2.93725 -2.94385,8.65364 -0.0192,11.75405 2.79083,2.60038 5.80092,4.96871 8.50883,7.66707 4.40775,4.08669 8.06592,8.86703 11.58806,13.71319 7.58776,10.0628 15.3951,19.97182 23.61505,29.52713 5.83095,6.43913 11.46158,13.06442 16.60118,20.0726 2.32508,3.04644 4.46744,6.41262 7.87193,8.37117 6.26654,3.94799 13.97623,4.81387 21.2159,3.97772 16.07648,-1.28551 31.63894,-6.54001 45.94139,-13.84591 9.43269,-5.09729 17.79641,-12.12189 24.48293,-20.50203 5.92095,-6.65644 13.1677,-12.50354 21.81757,-15.09859 7.6561,-2.65996 15.74797,-3.57297 23.70091,-4.9136 0.92375,-0.99317 -0.99682,-1.78723 -1.78125,-1.3125 -10.71915,1.99227 -21.53141,4.17677 -31.57307,8.55007 -4.94331,2.25554 -9.90145,4.85634 -13.56314,8.97276 -6.2661,6.50951 -11.13493,14.60141 -18.99549,19.40378 -10.04437,5.10894 -21.03329,7.92608 -31.88661,10.73569 -9.66198,2.00955 -19.8589,3.16295 -29.52517,0.57926 -6.4864,-2.57351 -10.92411,-8.43631 -14.02884,-14.4547 -7.75556,-11.58471 -17.22429,-21.86321 -25.64643,-32.94311 -7.64264,-10.69024 -15.78165,-21.27555 -26.25461,-29.36785 -3.41275,-2.74059 -7.21441,-5.30511 -9.33914,-9.25715 -0.25674,-2.1268 2.19166,-3.02158 3.79418,-3.66283 4.22961,-1.73952 8.25418,-3.95433 12.26957,-6.13662 11.13485,-6.28865 21.24664,-14.16729 31.65935,-21.53923 6.00317,-3.53428 13.20987,-3.35962 19.943,-3.69421 16.32963,-0.39169 33.09262,1.34962 48.11963,8.13631 6.73187,2.97069 12.27113,7.98653 17.14146,13.40238 8.81401,9.82048 17.77283,19.75645 28.8327,27.11851 8.79552,5.91789 18.95068,10.38062 29.6849,10.68689 5.03433,0.22758 10.07304,-0.64866 14.83646,-2.21745 0.95456,-0.79434 -0.0414,-2.17057 -1.10027,-1.4862 -11.37591,2.34513 -23.30855,-1.18921 -32.74348,-7.6388 -13.55519,-8.87468 -23.99625,-21.43973 -35.29264,-32.85514 -5.52492,-5.83281 -12.27772,-10.54626 -19.86061,-13.27738 -11.93745,-4.7283 -24.82284,-6.48921 -37.57763,-7.10872 -4.55666,-0.18616 -9.11638,-0.14006 -13.67537,-0.10251 z"
       id="path2820" />
    <path
       style="color:#000000;fill:#0000ff;fill-opacity:1;fill-rule:nonzero;stroke:#0000ff;stroke-width:1.67999995;stroke-linecap:round;stroke-linejoin:round;stroke-miterlimit:7.69999981;stroke-opacity:1;stroke-dasharray:none;stroke-dashoffset:0;marker:none;visibility:visible;display:inline;overflow:visible;enable-background:accumulate"
       id="path2825"
       d="m 449.37732,592.82406 c -0.1341,3.31637 0.31437,6.61171 0.43933,9.92361 0.0796,5.56528 0.46187,11.13581 0.30837,16.70187 -0.54048,4.97462 -3.51542,5.23026 -8.64339,7.91088 -0.22505,0.11764 -0.52486,0.0238 -0.75795,-0.077 -0.27109,-0.11725 -0.46264,-0.36731 -0.69396,-0.55097 -1.39646,-1.96031 -1.35898,-4.54033 -1.45861,-6.8557 -0.0825,-2.89054 -0.0621,-5.78311 -0.0482,-8.67449 0.0104,-2.88769 0.01,-5.77539 0.0174,-8.66308 -0.32507,-1.72748 -0.45002,-5.51472 -2.81265,-5.73113 -2.21862,2.12068 0.59158,-0.63231 5.94329,-3.04244 0.24724,-0.11134 -0.27141,0.47299 -0.36151,0.72874 -0.11714,0.33246 -0.19027,0.67968 -0.25669,1.02586 -0.16302,0.84956 -0.20143,1.62123 -0.27273,2.48468 -0.15111,2.86087 -0.11604,5.72711 -0.11296,8.59074 0.0435,2.91588 -0.4171,5.80929 -0.65886,8.71047 -0.11978,1.8975 -0.0663,0.94174 -0.15989,2.86732 0,0 -6.95972,3.50713 -6.95972,3.50713 l 0,0 c 0.079,-1.94057 0.0292,-0.97674 0.14854,-2.89155 0.2162,-2.88648 0.69527,-5.75762 0.68895,-8.65419 -0.0138,-2.87699 -0.0367,-5.75582 0.0703,-8.63134 0.25437,-4.68085 0.79018,-9.58896 8.47256,-9.13156 2.43184,1.28044 2.81934,4.15254 3.21581,6.62968 0.002,2.8885 -0.007,5.77701 -0.018,8.66548 -0.005,2.87903 -0.036,5.75874 0.041,8.63715 0.0891,2.01908 -0.0272,4.42436 1.16959,6.14558 2.05269,0.70967 9.59627,-4.81232 -5.05074,3.60628 -0.25825,0.14843 0.50102,-0.33842 0.68795,-0.57033 0.25238,-0.31308 0.47459,-0.66206 0.61052,-1.04053 0.17557,-0.48881 0.20771,-1.01779 0.31156,-1.52668 0.37063,-5.54523 -0.024,-11.12317 -0.19934,-16.66969 -0.23771,-3.27757 -0.6726,-6.54252 -0.71577,-9.8297 0,0 7.0558,-3.59511 7.0558,-3.59511 z" />
    <text
       xml:space="preserve"
       style="font-size:12px;font-style:normal;font-weight:normal;fill:#000000;fill-opacity:1;stroke:none;font-family:Bitstream Vera Sans"
       x="14.705597"
       y="531.45276"
       id="text2823"><tspan
         sodipodi:role="line"
         id="tspan2825"
         x="14.705597"
         y="531.45276"
         style="font-size:20px">Vchod</tspan></text>
    <path
       style="fill:none;stroke:#000000;stroke-width:2.29999995;stroke-linecap:butt;stroke-linejoin:miter;stroke-miterlimit:4;stroke-opacity:1;stroke-dasharray:none;marker-end:url(#Arrow1Mend)"
       d="m 48.264161,541.99974 74.787649,33.55857"
       id="path2827" />
    <path
       style="color:#000000;fill:#0000ff;fill-opacity:1;fill-rule:nonzero;stroke:#000000;stroke-width:1.67999995;stroke-linecap:round;stroke-linejoin:round;stroke-miterlimit:7.69999981;stroke-opacity:1;stroke-dasharray:none;stroke-dashoffset:0;marker:none;visibility:visible;display:none;overflow:visible;enable-background:accumulate"
       id="path3801"
       d="m 238,-31.53125 c -11.78046,0.4659 -23.37248,2.819847 -35.06888,4.081952 -7.53847,0.383046 -15.24463,0.233737 -22.50193,2.621806 -9.70514,2.453302 -19.24749,5.489507 -28.86794,8.239937 -6.57277,1.608649 -13.23175,2.885063 -19.92291,3.885452 -4.2051,0.679968 -8.48342,0.639753 -12.70084,1.139603 -8.37435,1.370031 -15.61056,6.1434168 -22.692011,10.5241123 C 85.425583,5.9687889 75.149542,13.777917 64.963341,21.666615 58.07696,27.114647 51.023717,32.420865 44.967289,38.813961 34.553229,49.452338 24.225396,60.17601 13.860103,70.861814 13.611016,71.362482 11.372428,72.940682 12.65625,72.625 c 1.601479,-0.547009 3.083057,-1.391779 4.6875,-1.9375 3.75228,-2.043163 5.99367,-5.821553 8.925296,-8.786712 C 35.804624,51.408671 45.443557,40.984884 55.690726,31.182621 63.476997,24.236002 72.357738,18.683511 80.541205,12.237395 88.308289,6.4381823 95.90424,0.28251327 104.4823,-4.2975359 c 6.59388,-3.1008281 14.00922,-3.1625419 21.1129,-3.9292083 11.70776,-1.4811354 23.20941,-4.3057638 34.40759,-7.9968478 8.34532,-2.414358 16.72229,-4.938214 25.35613,-6.073244 5.78958,-0.485815 11.62643,-0.355917 17.37782,-1.28747 12.13637,-1.686275 24.30201,-4.243499 36.6209,-3.39992 8.59364,0.517481 16.9,2.929668 25.31703,4.555539 6.4628,1.335896 12.97851,2.412108 19.46413,3.610748 8.48376,2.084361 17.05579,3.881246 25.32995,6.724189 7.85128,2.5689819 15.67884,5.3637222 23.03126,9.1573728 5.98344,3.58203548 9.60802,9.927975 15.46076,13.6888592 4.14024,2.869118 8.3453,5.644634 12.3525,8.701508 5.86002,4.301343 11.81096,8.483798 17.88858,12.466932 7.75118,5.893637 13.97368,13.605449 18.92955,21.93977 5.49172,9.886879 6.94992,21.286644 8.78933,32.271728 1.45126,8.914561 2.41618,17.98757 1.49617,27.01306 -0.82196,8.41318 -2.81847,16.6485 -4.10626,24.99344 -3.12886,17.6572 -5.88477,35.43582 -10.74111,52.72271 -3.97294,11.34149 -11.28166,21.04401 -16.76719,31.64328 -5.31073,9.54203 -9.61204,19.62426 -12.99064,30.00491 -2.08675,6.1895 -3.80857,12.92783 -8.55177,17.699 -3.84298,3.62456 -8.5248,6.1793 -12.86468,9.14378 -0.97383,0.61424 -1.95128,1.22282 -2.9265,1.8349 -1.50538,-0.72517 -2.37875,1.32224 -3.79184,1.41848 -16.58162,7.47737 -34.14083,12.54283 -50.63828,20.22479 -5.83667,2.65581 -12.18392,3.95931 -18.55945,4.38435 -11.43565,0.75298 -22.63361,3.35709 -33.96128,4.95282 -8.84716,1.36241 -17.8389,1.89084 -26.7702,1.13904 -8.93134,-0.67278 -17.92258,-0.80695 -26.77172,-2.31353 -7.63795,-1.47003 -15.39508,0.14343 -23.01864,0.9229 -10.82639,1.17381 -22.19461,0.94869 -32.33234,-3.4476 -10.56467,-4.69374 -20.47346,-11.47237 -27.359472,-20.88975 -3.953797,-5.16091 -8.161685,-10.16492 -13.126275,-14.39127 -4.74303,-4.36631 -8.845338,-9.4492 -11.868296,-15.15368 -6.858126,-11.31555 -12.339779,-23.43631 -19.796622,-34.39565 -4.000594,-6.12179 -8.58149,-11.83889 -13.427436,-17.30608 -3.843054,-4.81585 -7.374597,-9.87591 -11.407688,-14.54023 -5.274707,-6.6982 -6.667272,-15.31808 -9.25952,-23.21552 -2.076315,-6.71717 -5.945226,-12.65969 -9.535941,-18.63907 -1.3040336,-0.99108 -2.4190186,0.7483 -3.5827682,1.1622 -1.2015773,0.68552 -2.40315453,1.37103 -3.6047318,2.05655 4.1225088,6.78474 8.6225632,13.53795 10.597745,21.33144 2.199788,7.19374 3.694826,14.9489 8.513176,20.96229 3.354439,4.21806 6.871146,8.30975 10.026363,12.68522 3.855224,5.26172 8.746845,9.68788 12.338976,15.15521 5.581784,8.22301 11.171946,16.49137 15.533516,25.44789 2.879011,5.90961 6.129255,11.64055 9.606933,17.21801 2.388891,3.76548 5.187829,7.2605 8.469974,10.28662 4.511264,4.32226 9.118402,8.60553 12.769963,13.70983 4.075915,5.30145 8.471604,10.53005 14.185194,14.1359 8.04977,5.75233 17.03518,10.60258 26.91063,12.17907 8.34013,1.49056 16.81748,0.43273 25.14988,-0.53047 7.42966,-0.87522 15.02667,-1.31684 22.39765,0.26274 8.0894,1.08728 16.27415,1.05402 24.39143,1.84095 6.1816,0.43791 12.40673,0.42936 18.54607,-0.4972 12.12044,-1.39081 24.0708,-3.98392 36.19509,-5.32688 5.7429,-0.44717 11.5885,-0.58251 17.10691,-2.42105 6.72948,-1.95012 12.80694,-5.54494 19.35249,-7.98324 13.9661,-5.47259 28.24687,-10.18594 41.87676,-16.48758 9.26888,-4.74289 18.08547,-10.3824 26.32277,-16.74797 5.23791,-4.47398 7.21199,-11.33272 9.14866,-17.67761 1.72209,-6.10925 3.85285,-12.09718 6.49375,-17.87108 6.07013,-13.64888 14.21397,-26.22937 20.99954,-39.50937 2.61348,-5.35823 4.10253,-11.16693 5.13021,-17.01417 2.63707,-12.69127 5.65147,-25.30754 7.78158,-38.09964 1.38986,-8.07242 2.93385,-16.12346 4.09792,-24.23169 1.06346,-7.59804 1.18923,-15.332515 0.0958,-22.934987 -1.19766,-10.299996 -3.01336,-20.548537 -5.69751,-30.567726 -2.79303,-8.835587 -7.79275,-16.881519 -14.13381,-23.607683 -4.8312,-5.661945 -10.64882,-10.473759 -17.16905,-14.069399 -6.69455,-4.285572 -12.51584,-9.787023 -19.24057,-14.0347317 -4.01336,-2.6824136 -7.98589,-5.5351945 -11.07453,-9.29089589 -2.61928,-2.96834611 -5.52356,-5.78875331 -9.1674,-7.45780451 -6.46922,-3.3513939 -13.43406,-5.5914959 -20.25497,-8.1000379 -9.07068,-3.019162 -18.34307,-5.424203 -27.69841,-7.375396 -6.62291,-1.182608 -13.31574,-1.973444 -19.86457,-3.553966 C 259.06256,-29.253683 248.65412,-31.87702 238,-31.53125 z M 335.4375,283.125 c -0.30989,0.0969 0.57759,-0.48708 0,0 z"
       transform="translate(120.17536,461.51756)" />
    <g
       id="g3809">
      <path
         transform="translate(120.17536,461.51756)"
         id="path3803"
         d="m 228.63121,-26.087201 c -14.72391,0.856932 -29.27781,3.61547 -43.98569,4.584339 C 161.828,-17.16247 139.99882,-8.7784475 116.68944,-6.7610661 98.689217,-4.162298 85.679389,10.025452 71.286628,19.804091 52.45746,34.241306 35.354449,51.159411 20.628066,69.644582 33.94631,73.083587 48.45084,70.059663 62.110999,68.859436 81.023084,66.331469 100.68936,63.674915 116.65948,52.445821 148.944,32.841612 179.78301,7.4003199 217.93442,0.90946174 241.02922,-1.2975035 262.00881,11.127759 281.22776,22.199893 c 22.83077,13.072141 43.35827,31.45929 54.91321,55.451455 12.46188,20.75245 10.89298,45.841012 9.75659,69.145412 -1.58417,25.52839 -3.26541,53.26372 -19.70787,74.09274 -9.29802,13.20354 -20.75864,25.82308 -35.90517,32.33354 -23.15421,12.28077 -47.73718,24.67023 -74.71706,22.9347 -20.55341,0.42323 -41.12736,-5.99959 -56.36052,-19.99349 -16.0655,-12.45065 -29.66688,-28.20499 -36.57518,-47.43295 -8.61663,-23.93768 -22.930497,-47.04561 -44.864255,-60.85333 -16.590594,-8.97796 -35.486456,-0.44344 -52.754547,1.4585 -4.991236,1.12406 -10.752322,0.62341 -15.3513499,2.70636 2.0428809,6.99961 6.4726829,13.33146 8.3596769,20.55462 3.568497,14.62099 13.319111,26.05797 22.764096,37.3095 13.567473,16.52467 22.485877,36.40619 34.315418,54.16753 11.857055,13.6585 23.305792,28.26312 38.082881,38.83745 10.23235,6.75242 22.51663,9.26186 34.69724,8.35428 17.45781,-0.49062 34.92554,-0.57436 52.3154,1.13859 25.63168,0.92383 51.06514,-3.37918 76.19591,-7.79038 18.2916,-6.1633 36.14377,-13.85342 54.09508,-20.90349 9.71421,-4.42795 20.61674,-9.27791 26.59527,-18.40796 7.61446,-17.91061 13.62256,-36.76896 24.21011,-53.24425 15.20037,-23.21902 16.85701,-51.63102 22.26136,-78.11659 3.80198,-19.07971 4.68597,-38.846468 -0.003,-57.867718 C 401.26593,59.631324 392.65907,44.410598 379.55483,34.318206 365.17517,22.727557 349.35796,13.056825 335.689,0.60983175 315.6753,-12.939432 290.9263,-16.19918 267.78799,-21.463729 c -12.90274,-2.508331 -25.94252,-5.09323 -39.15678,-4.623472 z"
         style="fill:#a0a0a0;stroke:none" />
      <path
         transform="translate(120.17536,461.51756)"
         id="path3805"
         d="m 199.62702,82.888228 c -7.337,-0.410739 -14.74652,0.987699 -20.37484,5.9926 -13.03598,9.388366 -26.23525,18.221032 -40.62982,25.198882 -2.47426,0.73707 -4.04694,3.32825 -1.04871,4.85401 12.78893,11.01724 24.49238,23.19318 34.44046,36.86325 11.23275,13.6156 21.239,28.29541 32.18609,42.01816 8.70575,8.62568 22.48686,5.66527 33.35998,4.0262 15.55902,-3.59033 32.84215,-6.97047 43.66454,-19.80457 8.31995,-9.25888 17.32693,-18.31562 29.47514,-22.05374 3.8983,-3.28363 0.96361,-9.58723 2.39704,-14.02268 2.9195,-6.22612 -2.43695,-8.40222 -7.40086,-10.21738 C 286.3502,126.673 273.84741,107.88237 257.66535,94.573798 240.68647,83.073748 219.50918,82.22951 199.62702,82.888228 z"
         style="fill:#a0a0a0;stroke:none" />
      <path
         transform="translate(120.17536,461.51756)"
         id="path3807"
         d="m 330.41552,141.49585 c 0.92374,3.98121 -1.78445,10.16402 1.82774,13.1238 2.31956,0.41835 9.43178,-1.43173 10.72114,1.64268 14.57493,12.41031 21.45921,-44.14605 3.26339,-19.44141 -1.76088,3.48474 -12.99656,3.74718 -15.81227,4.67493 z"
         style="fill:#a0a0a0;stroke:none"
         sodipodi:nodetypes="ccccc" />
    </g>
    <text
       xml:space="preserve"
       style="font-size:12px;font-style:normal;font-weight:normal;fill:#000000;fill-opacity:1;stroke:none;font-family:Bitstream Vera Sans"
       x="445.84943"
       y="502.00183"
       id="text2827"><tspan
         sodipodi:role="line"
         id="tspan2829"
         x="445.84943"
         y="502.00183"
         style="font-size:20px">Tajný priechod</tspan></text>
    <path
       style="fill:none;stroke:#000000;stroke-width:2.29999995;stroke-linecap:butt;stroke-linejoin:miter;stroke-miterlimit:4;stroke-opacity:1;stroke-dasharray:none;marker-end:url(#Arrow1Mend)"
       d="m 494.74904,522.13696 -49.85843,60.40541"
       id="path2831"
       sodipodi:nodetypes="cc" />
  </g>
</svg>
